<?xml version="1.0" encoding="utf-8"?>
<!-- Generator: Adobe Illustrator 28.3.0, SVG Export Plug-In . SVG Version: 6.00 Build 0)  -->
<svg version="1.1" id="svg1936" xmlns:svg="http://www.w3.org/2000/svg"
	 xmlns="http://www.w3.org/2000/svg" xmlns:xlink="http://www.w3.org/1999/xlink" x="0px" y="0px" viewBox="0 0 602.3 181.5"
	 style="enable-background:new 0 0 602.3 181.5;" xml:space="preserve">
<path id="path8" d="M373.6,141.9c-35,25.8-85.7,39.6-129.4,39.6c-61.2,0-116.4-22.7-158.1-60.3c-3.3-3-0.3-7,3.6-4.7
	c45,26.2,100.7,41.9,158.2,41.9c38.8,0,81.4-8,120.6-24.7C374.5,131.2,379.4,137.6,373.6,141.9"/>
<path id="path10" d="M388.2,125.3c-4.5-5.7-29.6-2.7-40.8-1.4c-3.4,0.4-4-2.6-0.9-4.7c20-14.1,52.8-10,56.7-5.3
	c3.8,4.7-1,37.6-19.8,53.4c-2.9,2.4-5.6,1.1-4.4-2.1C383.2,154.7,392.7,131,388.2,125.3"/>
<path id="path12" d="M348.1,19.8V6.1c0-2.1,1.6-3.5,3.5-3.5h61.3c2,0,3.5,1.4,3.5,3.5v11.7c0,2-1.7,4.5-4.6,8.6L380,71.8
	c11.8-0.3,24.3,1.5,34.9,7.5c2.4,1.4,3.1,3.4,3.3,5.3v14.6c0,2-2.2,4.3-4.5,3.1c-18.8-9.9-43.9-11-64.7,0.1
	c-2.1,1.2-4.4-1.2-4.4-3.1V85.4c0-2.2,0-6,2.3-9.4l36.8-52.7h-32C349.7,23.3,348.1,21.9,348.1,19.8"/>
<path id="path14" d="M124.6,105.2H106c-1.8-0.1-3.2-1.5-3.3-3.2V6.4c0-1.9,1.6-3.4,3.6-3.4h17.4c1.8,0.1,3.3,1.5,3.4,3.2v12.5h0.3
	c4.5-12.1,13.1-17.7,24.5-17.7c11.7,0,19,5.6,24.2,17.7c4.5-12.1,14.8-17.7,25.7-17.7c7.8,0,16.4,3.2,21.6,10.5
	c5.9,8,4.7,19.7,4.7,30l0,60.4c0,1.9-1.6,3.5-3.6,3.5h-18.6c-1.9-0.1-3.4-1.6-3.4-3.5V51c0-4,0.4-14.1-0.5-17.9
	c-1.4-6.4-5.6-8.2-11-8.2c-4.5,0-9.2,3-11.1,7.8c-1.9,4.8-1.7,12.9-1.7,18.3v50.7c0,1.9-1.6,3.5-3.6,3.5H156
	c-1.9-0.1-3.4-1.6-3.4-3.5l0-50.7c0-10.7,1.8-26.4-11.5-26.4c-13.4,0-12.9,15.3-12.9,26.4v50.7C128.2,103.7,126.6,105.2,124.6,105.2
	"/>
<path id="path16" d="M469.2,0.9c27.7,0,42.6,23.8,42.6,54c0,29.2-16.5,52.3-42.6,52.3c-27.2,0-41.9-23.8-41.9-53.4
	C427.2,24.1,442.2,0.9,469.2,0.9 M469.3,20.4c-13.7,0-14.6,18.7-14.6,30.4c0,11.7-0.2,36.7,14.4,36.7c14.4,0,15.1-20.1,15.1-32.4
	c0-8.1-0.3-17.7-2.8-25.4C479.4,23,475.2,20.4,469.3,20.4"/>
<path id="path18" d="M547.6,105.2h-18.6c-1.9-0.1-3.4-1.6-3.4-3.5l0-95.7c0.2-1.8,1.7-3.1,3.6-3.1h17.3c1.6,0.1,3,1.2,3.3,2.7v14.6
	h0.3c5.2-13.1,12.5-19.3,25.4-19.3c8.4,0,16.5,3,21.8,11.3c4.9,7.7,4.9,20.5,4.9,29.8v60.2c-0.2,1.7-1.8,3-3.6,3H580
	c-1.7-0.1-3.1-1.4-3.3-3v-52c0-10.5,1.2-25.8-11.7-25.8c-4.5,0-8.7,3-10.8,7.7c-2.6,5.8-3,11.7-3,18.1v51.5
	C551.3,103.7,549.6,105.2,547.6,105.2"/>
<path id="path30" d="M299.3,59.5v-4c-13.5,0-27.7,2.9-27.7,18.8c0,8,4.2,13.5,11.3,13.5c5.2,0,9.9-3.2,12.9-8.5
	C299.5,72.8,299.3,66.8,299.3,59.5 M318.1,104.9c-1.2,1.1-3,1.2-4.4,0.4c-6.2-5.1-7.3-7.5-10.7-12.4c-10.2,10.4-17.5,13.6-30.7,13.6
	c-15.7,0-27.9-9.7-27.9-29c0-15.1,8.2-25.4,19.9-30.5c10.1-4.5,24.3-5.2,35.1-6.5v-2.4c0-4.4,0.3-9.7-2.3-13.5
	c-2.3-3.4-6.6-4.9-10.5-4.9c-7.1,0-13.4,3.6-15,11.2c-0.3,1.7-1.5,3.3-3.2,3.4l-18.1-1.9c-1.5-0.3-3.2-1.6-2.8-3.9
	C251.7,6.6,271.4,0,289.2,0c9.1,0,20.9,2.4,28.1,9.3c9.1,8.5,8.2,19.8,8.2,32.1v29c0,8.7,3.6,12.6,7,17.3c1.2,1.7,1.5,3.7-0.1,5
	C328.6,95.8,321.9,101.7,318.1,104.9L318.1,104.9"/>
<path id="path30_00000040556851878949923620000015661947021219140504_" d="M54.9,59.5v-4c-13.5,0-27.7,2.9-27.7,18.8
	c0,8,4.2,13.5,11.3,13.5c5.2,0,9.9-3.2,12.9-8.5C55.1,72.8,54.9,66.8,54.9,59.5 M73.7,104.9c-1.2,1.1-3,1.2-4.4,0.4
	c-6.2-5.1-7.3-7.5-10.7-12.4c-10.2,10.4-17.5,13.6-30.7,13.6c-15.7,0-27.9-9.7-27.9-29C0,62.3,8.2,52,19.9,47
	c10.1-4.5,24.3-5.2,35.1-6.5v-2.4c0-4.4,0.3-9.7-2.3-13.5c-2.3-3.4-6.6-4.9-10.5-4.9c-7.1,0-13.4,3.6-15,11.2
	c-0.3,1.7-1.5,3.3-3.2,3.4L5.9,32.4c-1.5-0.3-3.2-1.6-2.8-3.9C7.3,6.6,27.1,0,44.8,0c9.1,0,20.9,2.4,28.1,9.3
	c9.1,8.5,8.2,19.8,8.2,32.1v29c0,8.7,3.6,12.6,7,17.3c1.2,1.7,1.5,3.7-0.1,5C84.3,95.8,77.5,101.7,73.7,104.9L73.7,104.9"/>
</svg>
