<?xml version="1.0" encoding="utf-8"?>
<!-- Generator: Adobe Illustrator 28.3.0, SVG Export Plug-In . SVG Version: 6.00 Build 0)  -->
<svg version="1.1" id="Layer_1" xmlns="http://www.w3.org/2000/svg" xmlns:xlink="http://www.w3.org/1999/xlink" x="0px" y="0px"
	 viewBox="0 0 20 17.5" style="enable-background:new 0 0 20 17.5;" xml:space="preserve">
<path d="M18.8,7.5H3.9L8.4,2c0.2-0.3,0.3-0.6,0.3-0.9S8.5,0.5,8.3,0.3C8,0.1,7.7,0,7.4,0C7.1,0,6.7,0.2,6.5,0.5L0.3,8
	c0,0.1-0.1,0.1-0.1,0.2c0,0.1,0,0.1-0.1,0.2C0,8.4,0,8.6,0,8.8s0,0.3,0.1,0.4c0,0.1,0,0.1,0.1,0.2c0,0.1,0.1,0.1,0.1,0.2l6.2,7.5
	c0.1,0.1,0.3,0.3,0.4,0.3c0.2,0.1,0.3,0.1,0.5,0.1c0.3,0,0.6-0.1,0.8-0.3c0.1-0.1,0.2-0.2,0.3-0.4c0.1-0.1,0.1-0.3,0.1-0.5
	s0-0.3-0.1-0.5c0-0.2-0.1-0.3-0.2-0.4L3.9,10h14.8c0.3,0,0.6-0.1,0.9-0.4C19.9,9.4,20,9.1,20,8.8s-0.1-0.6-0.4-0.9
	S19.1,7.5,18.8,7.5z"/>
</svg>
