<?xml version="1.0" encoding="utf-8"?>
<!-- Generator: Adobe Illustrator 28.3.0, SVG Export Plug-In . SVG Version: 6.00 Build 0)  -->
<svg version="1.1" id="Layer_1" xmlns="http://www.w3.org/2000/svg" xmlns:xlink="http://www.w3.org/1999/xlink" x="0px" y="0px"
	 viewBox="0 0 20 17.5" style="enable-background:new 0 0 20 17.5;" xml:space="preserve">
<path d="M1.2,7.5H16L11.5,2c-0.2-0.3-0.3-0.6-0.3-0.9s0.2-0.6,0.4-0.8C12,0.1,12.3,0,12.6,0s0.6,0.2,0.8,0.4L19.7,8
	c0,0.1,0.1,0.1,0.1,0.2c0,0.1,0,0.1,0.1,0.2C20,8.4,20,8.6,20,8.8s0,0.3-0.1,0.4c0,0.1,0,0.1-0.1,0.2c0,0.1-0.1,0.1-0.1,0.2
	l-6.2,7.5c-0.1,0.1-0.3,0.3-0.4,0.3c-0.2,0.1-0.3,0.1-0.5,0.1c-0.3,0-0.6-0.1-0.8-0.3c-0.1-0.1-0.2-0.2-0.3-0.4
	c-0.1-0.1-0.1-0.3-0.1-0.5s0-0.3,0.1-0.5c0-0.2,0.1-0.3,0.2-0.4l4.5-5.4h-15c-0.3,0-0.6-0.1-0.9-0.4C0.1,9.4,0,9.1,0,8.8
	s0.1-0.6,0.4-0.9C0.6,7.6,0.9,7.5,1.2,7.5z"/>
</svg>
