<?xml version="1.0" encoding="utf-8"?>
<!-- Generator: Adobe Illustrator 28.3.0, SVG Export Plug-In . SVG Version: 6.00 Build 0)  -->
<svg version="1.1" id="Layer_1" xmlns="http://www.w3.org/2000/svg" xmlns:xlink="http://www.w3.org/1999/xlink" x="0px" y="0px"
	 viewBox="0 0 13.3 9.1" style="enable-background:new 0 0 13.3 9.1;" xml:space="preserve">
<path d="M5.2,9.1C5.1,9.1,5,9,4.9,9C4.7,8.9,4.6,8.9,4.5,8.8L0.3,4.5C0.2,4.4,0.1,4.3,0.1,4.2C0,4.1,0,4,0,3.8c0-0.1,0-0.3,0.1-0.4
	c0.1-0.1,0.1-0.2,0.2-0.3s0.2-0.2,0.3-0.2C0.7,2.8,0.9,2.8,1,2.8s0.3,0,0.4,0.1S1.6,3,1.7,3.1l3.5,3.5l6.4-6.4
	C11.8,0.1,12.1,0,12.3,0c0.3,0,0.5,0.1,0.7,0.3s0.3,0.4,0.3,0.7S13.2,1.5,13,1.7L6,8.8C5.9,8.9,5.8,8.9,5.6,9C5.5,9,5.4,9.1,5.2,9.1
	z"/>
</svg>
