<?xml version="1.0" encoding="utf-8"?>
<!-- Generator: Adobe Illustrator 28.3.0, SVG Export Plug-In . SVG Version: 6.00 Build 0)  -->
<svg version="1.1" id="Layer_1" xmlns="http://www.w3.org/2000/svg" xmlns:xlink="http://www.w3.org/1999/xlink" x="0px" y="0px"
	 viewBox="0 0 508.7 96.4" style="enable-background:new 0 0 508.7 96.4;" xml:space="preserve">
<path d="M170.8,20.2h27.3c6.6,0,12.1,1,16.7,3.1c4.2,1.8,7.8,4.8,10.2,8.6c2.3,3.8,3.5,8.1,3.4,12.6c0.1,4.4-1.2,8.8-3.5,12.6
	c-2.6,4-6.4,7.1-10.8,8.9c-4.8,2.2-10.8,3.3-17.9,3.3h-25.3V20.2z M195.9,56.7c4.4,0,7.8-1.1,10.2-3.3c2.4-2.4,3.7-5.7,3.6-9.1
	c0.2-3.1-1-6.2-3.2-8.5c-2.1-2.1-5.3-3.2-9.6-3.2h-8.5v24.1H195.9z"/>
<path d="M269.3,69.1c-3.6-0.9-7-2.3-10.2-4.3V53.2c2.8,2,5.9,3.5,9.2,4.4c3.6,1.1,7.4,1.7,11.2,1.7c1.3,0.1,2.6-0.2,3.8-0.7
	c0.9-0.4,1.3-1,1.3-1.6c0-0.7-0.2-1.3-0.7-1.8c-0.8-0.6-1.7-1-2.7-1.2l-8.4-1.9c-4.8-1.1-8.2-2.7-10.2-4.7c-2.1-2.1-3.1-4.9-3-7.8
	c0-2.6,0.9-5.1,2.7-7.1c2.1-2.2,4.7-3.8,7.6-4.6c3.7-1.2,7.6-1.7,11.5-1.6c3.6,0,7.3,0.4,10.8,1.3c2.8,0.7,5.6,1.8,8.1,3.2v11
	c-2.4-1.4-4.9-2.4-7.6-3.1c-2.9-0.8-5.9-1.2-8.9-1.2c-4.4,0-6.6,0.7-6.6,2.2c0,0.7,0.4,1.3,1,1.6c1.2,0.5,2.5,0.9,3.7,1.1l7,1.3
	c4.5,0.8,7.9,2.2,10.2,4.2s3.4,4.9,3.4,8.8c0.1,4.1-2,8-5.6,10.1c-3.7,2.5-8.9,3.7-15.8,3.7C277.1,70.6,273.1,70.1,269.3,69.1z"/>
<path d="M318.9,67.7c-3.7-1.7-6.9-4.5-9.1-8c-2-3.4-3.1-7.4-3-11.3c-0.1-4,1-7.9,3.1-11.3c2.3-3.4,5.5-6.2,9.2-7.8
	c4.6-2,9.6-3,14.6-2.8c7,0,12.8,1.5,17.4,4.4v12.8c-1.8-1.2-3.7-2.1-5.7-2.7c-2.3-0.7-4.6-1.1-7-1c-4.3,0-7.7,0.8-10.2,2.4
	c-3.4,1.9-4.7,6.3-2.8,9.7c0.6,1.1,1.5,2.1,2.7,2.7c2.4,1.6,5.8,2.4,10.4,2.4c2.3,0,4.7-0.3,6.9-1c2-0.6,4-1.4,5.8-2.5V66
	c-5.4,3.2-11.6,4.8-17.9,4.6C328.5,70.8,323.5,69.7,318.9,67.7z"/>
<path d="M368.6,67.7c-3.8-1.7-7-4.5-9.2-8c-2.1-3.4-3.2-7.4-3.2-11.4c-0.1-4,1-7.9,3.2-11.3c2.3-3.4,5.5-6.1,9.2-7.7
	c9.2-3.7,19.5-3.7,28.7,0c3.7,1.6,6.9,4.3,9.2,7.7c2.1,3.4,3.2,7.3,3.1,11.3c0,4-1,8-3.1,11.4c-2.2,3.5-5.4,6.3-9.2,8
	C388.1,71.6,377.8,71.6,368.6,67.7L368.6,67.7z M389.9,55.2c1.7-1.8,2.7-4.3,2.6-6.8c0.1-2.5-0.8-4.9-2.6-6.7
	c-1.9-1.7-4.4-2.6-7-2.5c-2.6-0.1-5.1,0.8-7,2.5c-1.7,1.8-2.7,4.2-2.5,6.7c-0.1,2.5,0.8,5,2.5,6.8c1.9,1.8,4.4,2.7,7,2.5
	C385.5,57.9,388,57,389.9,55.2z"/>
<path d="M451.7,29v15.1c-2.1-1.2-4.5-1.9-6.9-1.8c-3.7,0-6.6,1.1-8.6,3.4s-3,5.8-3,10.5v12.9H416V28.2h16.8v13
	c0.9-4.8,2.4-8.3,4.5-10.5c2-2.2,5-3.5,8-3.4C447.6,27.3,449.8,27.8,451.7,29z"/>
<path d="M508.7,18.8v50.4h-17.2V60c-1.3,3.3-3.6,6-6.6,7.9c-3.3,1.9-7.1,2.8-10.9,2.7c-3.6,0.1-7.1-0.9-10.1-2.8
	c-2.9-1.9-5.3-4.6-6.7-7.8c-1.6-3.5-2.4-7.3-2.3-11.2c-0.1-4,0.7-8,2.5-11.5c1.6-3.3,4.1-6.1,7.2-8c3.2-1.9,6.9-2.9,10.6-2.9
	c8.2,0,13.6,3.5,16.5,10.6V18.8H508.7z M489,55c1.8-1.7,2.7-4.1,2.6-6.6c0.1-2.4-0.9-4.7-2.6-6.4c-4-3.3-9.8-3.3-13.9,0
	c-1.7,1.7-2.7,4-2.6,6.5c-0.1,2.4,0.9,4.8,2.6,6.5c1.9,1.7,4.3,2.6,6.9,2.5C484.6,57.7,487.1,56.7,489,55z"/>
<path d="M107.7,8.1C99.3,4.2,90.5,1.5,81.5,0c-1.2,2.2-2.4,4.5-3.4,6.8c-9.6-1.5-19.5-1.5-29.1,0c-1-2.3-2.1-4.6-3.4-6.8
	c-9.1,1.5-17.9,4.3-26.2,8.1C2.8,32.7-1.7,56.6,0.5,80.2l0,0c9.7,7.2,20.6,12.6,32.2,16.2c2.6-3.5,4.9-7.2,6.9-11.1
	c-3.8-1.4-7.4-3.1-10.9-5.2c0.9-0.7,1.8-1.3,2.7-2c20.4,9.6,44,9.6,64.3,0c0.9,0.7,1.8,1.4,2.7,2c-3.5,2-7.1,3.8-10.9,5.2
	c2,3.9,4.3,7.6,6.9,11.1c11.6-3.5,22.5-9,32.2-16.1l0,0C129.2,52.8,122.1,29.1,107.7,8.1z M42.4,65.7C36.2,65.7,31,60,31,53
	s5-12.7,11.4-12.7S54,46,53.9,53S48.8,65.7,42.4,65.7z M84.7,65.7c-6.3,0-11.4-5.7-11.4-12.7s5-12.7,11.4-12.7S96.2,46,96.1,53
	S91.1,65.7,84.7,65.7z"/>
<ellipse cx="242.9" cy="24.9" rx="8.6" ry="7.7"/>
<path d="M234.4,37.9c5.5,2.3,11.6,2.3,17.1,0v31.5h-17.1V37.9z"/>
</svg>
