<?xml version="1.0" encoding="utf-8"?>
<!-- Generator: Adobe Illustrator 28.3.0, SVG Export Plug-In . SVG Version: 6.00 Build 0)  -->
<svg version="1.1" id="Layer_1" xmlns="http://www.w3.org/2000/svg" xmlns:xlink="http://www.w3.org/1999/xlink" x="0px" y="0px"
	 viewBox="0 0 34.9 36.2" style="enable-background:new 0 0 34.9 36.2;" xml:space="preserve">
<path d="M31.1,13.6L31.1,13.6L31.1,13.6L17.5,0L3.9,13.6l0,0l0,0c-2.1,2.1-3.4,4.8-3.8,7.8c-0.4,2.9,0.3,5.9,1.8,8.4
	s3.9,4.5,6.6,5.5c2.8,1.1,5.8,1.2,8.6,0.3c0.2-0.1,0.5-0.1,0.7,0c2.8,0.9,5.9,0.8,8.6-0.3s5.1-3,6.6-5.5c1.5-2.5,2.2-5.5,1.8-8.4
	C34.6,18.5,33.2,15.7,31.1,13.6z M8.7,22.6c-0.1,0.1-0.1,0.1-0.2,0.2c0,0.1-0.1,0.2-0.1,0.3c0,2.4,0.7,4.8,2,6.8c0,0,0,0.1,0,0.2
	s0,0.1-0.1,0.1l-0.1,0.1c-0.1,0-0.1,0-0.2,0c-0.9-0.4-1.8-1-2.5-1.7C6,27.1,5.2,25.1,5.2,23s0.8-4.1,2.3-5.6l9.9-9.9l9.9,9.9
	c1.5,1.5,2.3,3.5,2.3,5.6s-0.8,4.1-2.3,5.6c-0.7,0.7-1.6,1.3-2.5,1.7c-0.1,0-0.1,0-0.2,0s-0.1,0-0.1-0.1l-0.1-0.1c0-0.1,0-0.1,0-0.2
	c1.3-2,1.9-4.4,2-6.8c0-0.1,0-0.2-0.1-0.3c0-0.1-0.1-0.2-0.2-0.2l-4.7-5c0,0-0.1-0.1-0.2-0.1s-0.1,0-0.2,0.1c0,0-0.1,0.1-0.1,0.2
	s0,0.1,0,0.2c1.8,3.3,0.3,8-2.3,10.6l0,0c-0.4,0.4-0.8,0.6-1.3,0.6s-1-0.2-1.3-0.6l0,0c-2.5-2.6-4-7.3-2.2-10.6c0-0.1,0-0.1,0-0.2
	s0-0.1-0.1-0.2c0,0-0.1-0.1-0.2-0.1c-0.1,0-0.1,0-0.2,0.1L8.7,22.6z"/>
</svg>
