<?xml version="1.0" encoding="utf-8"?>
<!-- Generator: Adobe Illustrator 28.3.0, SVG Export Plug-In . SVG Version: 6.00 Build 0)  -->
<svg version="1.1" id="Layer_1" xmlns="http://www.w3.org/2000/svg" xmlns:xlink="http://www.w3.org/1999/xlink" x="0px" y="0px"
	 viewBox="0 0 14 20" style="enable-background:new 0 0 14 20;" xml:space="preserve">
<path d="M14,7c0-0.9-0.2-1.8-0.5-2.7C13.1,3.5,12.6,2.7,12,2c-0.7-0.7-1.4-1.2-2.3-1.5C8.8,0.2,7.9,0,7,0S5.2,0.2,4.3,0.5
	C3.5,0.9,2.7,1.4,2.1,2.1S0.9,3.5,0.5,4.3S0,6.1,0,7c0,1.4,0.4,2.7,1.1,3.8l0,0C3.5,14.5,7,20,7,20l5.9-9.2l0,0
	C13.6,9.6,14,8.3,14,7z M7,10c-0.8,0-1.6-0.3-2.1-0.9C4.3,8.6,4,7.8,4,7s0.3-1.6,0.9-2.1S6.2,4,7,4s1.6,0.3,2.1,0.9
	C9.7,5.4,10,6.2,10,7S9.7,8.6,9.1,9.1C8.6,9.7,7.8,10,7,10z"/>
</svg>
