<?xml version="1.0" encoding="utf-8"?>
<!-- Generator: Adobe Illustrator 28.3.0, SVG Export Plug-In . SVG Version: 6.00 Build 0)  -->
<svg version="1.1" id="Layer_1" xmlns="http://www.w3.org/2000/svg" xmlns:xlink="http://www.w3.org/1999/xlink" x="0px" y="0px"
	 viewBox="0 0 774.2 216" style="enable-background:new 0 0 774.2 216;" xml:space="preserve">
<g>
	<path d="M133,144.1c-7.8-0.8-16.2-1.2-24.9-1.2l0,0c-8.8,0-17.2,0.4-24.9,1.2c-1,0.1-1.7,0.9-1.8,1.8c0,0.3,0,0.6,0.1,0.9
		c4.3,10.4,14.6,17.7,26.6,17.7s22.2-7.3,26.6-17.7c0.1-0.3,0.2-0.6,0.1-0.9C134.7,145.1,134,144.2,133,144.1z"/>
	<path d="M86.8,123.4c0.4-9.2-5-16.6-12-16.6c-0.9,0-1.9,0.1-2.7,0.3c-5.8,1.3-10.5,6.9-10.8,14.9c-0.1,2,0.1,3.7,0.5,5.3
		c1.5,5.7,6,8.5,11.5,8.5C80.3,135.9,86.4,132.5,86.8,123.4z"/>
	<path d="M108,0C48.3,0,0,48.3,0,108c0,29.8,12.1,56.8,31.6,76.4L11,205c-4,4-1.1,11,4.6,11H108c59.7,0,108-48.4,108-108
		C216,48.3,167.7,0,108,0z M180,129.8c-0.8,29.3-32.7,52.9-72,52.9c-39.2,0-71.1-23.5-72-52.8c-8.6-4-14.5-12.7-14.5-22.8
		c0-13.9,11.3-25.2,25.2-25.2c5.8,0,11.2,2,15.4,5.3c11.5-7.1,25.9-11.6,41.8-12.3v-0.1c0-15,11.4-27.4,26.1-28.9
		c1.7-8.1,8.9-14.2,17.5-14.2c9.9,0,17.9,8,17.9,17.9s-8,17.9-17.9,17.9c-8.4,0-15.5-5.9-17.4-13.7c-10.4,1.4-18.4,10.3-18.4,21.1
		c0,0,0,0,0,0.1c16,0.6,30.6,5.1,42.2,12.3c4.3-3.3,9.6-5.2,15.4-5.2c13.9,0,25.2,11.3,25.2,25.2C194.4,117,188.5,125.7,180,129.8z"
		/>
	<path d="M155,122c-0.4-8-5.1-13.6-10.9-14.9c-0.9-0.2-1.7-0.3-2.6-0.3c-7.1,0-12.5,7.4-12,16.6c0.4,9.1,6.5,12.5,13.6,12.5
		c5.5,0,10-2.9,11.5-8.5C154.8,125.8,155,124,155,122L155,122z"/>
</g>
<g>
	<path d="M331.6,77.9l-12,28.6c-1.5-0.8-5.1-1.6-8.5-1.6s-6.8,0.8-10.1,2.5c-6.5,3.3-11.4,9.9-11.4,19.5v52.3h-29.9V77.3h29v14.3
		h0.6c6.8-9.1,17.2-15.8,30.7-15.8C325,75.8,329.7,76.8,331.6,77.9L331.6,77.9z"/>
	<path d="M325.8,128.5c0-29.4,20.1-52.7,50.3-52.7c27.3,0,46.9,20,46.9,48c0,4.9-0.5,9.6-1.5,14H353c3.1,10.7,12.4,19,26.3,19
		c7.7,0,18.5-2.7,24.4-7.3l9.3,22.3c-8.6,5.9-21.8,8.7-33.3,8.7C347.5,180.6,325.8,159.8,325.8,128.5L325.8,128.5z M352.5,119.2h43
		c0-13.1-8.9-20-19.8-20C363.5,99.2,355.2,107.1,352.5,119.2L352.5,119.2z"/>
	<path d="M679.5,31.6c10,0,18.2,8.2,18.2,18.2S689.5,68,679.5,68s-18.2-8.2-18.2-18.2S669.5,31.6,679.5,31.6z M694.5,179.1h-29.9
		V77.4h29.9V179.1z"/>
	<path d="M506,33.5L505.9,87h-0.6c-8.2-7.8-17.1-11.1-28.8-11.1c-28.7,0-47.7,23.1-47.7,52.3s17.8,52.4,46.7,52.4
		c12.1,0,23.5-4.2,30.9-13.6h0.9v12.1h28.5V33.5H506L506,33.5z M507.4,154.9h-1l-6.7-6.9c-4.3,4.3-10.3,6.9-17.2,6.9
		c-14.6,0-24.9-11.6-24.9-26.6s10.2-26.6,24.9-26.6s24.9,11.6,24.9,26.6L507.4,154.9L507.4,154.9z"/>
	<path d="M620.2,33.5L620.1,87h-0.6c-8.2-7.8-17.1-11.1-28.8-11.1C562,75.9,543,99,543,128.2s17.8,52.4,46.7,52.4
		c12.1,0,23.5-4.2,30.9-13.6h0.8v12.1H650V33.5H620.2L620.2,33.5z M621.4,154.9h-1l-6.7-6.9c-4.3,4.3-10.3,6.9-17.2,6.9
		c-14.6,0-24.9-11.6-24.9-26.6s10.2-26.6,24.9-26.6s24.9,11.6,24.9,26.6V154.9L621.4,154.9z"/>
	<path d="M752.4,77.3h21.8v25.4h-21.8V179h-29.9v-76.3h-21.8V77.3h21.8V49.7h29.9V77.3z"/>
</g>
</svg>
