<?xml version="1.0" encoding="utf-8"?>
<!-- Generator: Adobe Illustrator 28.3.0, SVG Export Plug-In . SVG Version: 6.00 Build 0)  -->
<svg version="1.1" id="Layer_1" xmlns="http://www.w3.org/2000/svg" xmlns:xlink="http://www.w3.org/1999/xlink" x="0px" y="0px"
	 viewBox="0 0 20 18" style="enable-background:new 0 0 20 18;" xml:space="preserve">
<path d="M18,0H2C1.5,0,1,0.2,0.6,0.6S0,1.5,0,2v4c0,0.5,0.2,1,0.6,1.4S1.5,8,2,8h16c0.5,0,1-0.2,1.4-0.6S20,6.5,20,6V2
	c0-0.5-0.2-1-0.6-1.4S18.5,0,18,0z M13,4c0,0.6-0.4,1-1,1s-1-0.4-1-1s0.4-1,1-1S13,3.4,13,4z M17,4c0,0.6-0.4,1-1,1s-1-0.4-1-1
	s0.4-1,1-1S17,3.4,17,4z M18,10H2c-0.5,0-1,0.2-1.4,0.6C0.2,11,0,11.5,0,12v4c0,0.5,0.2,1,0.6,1.4S1.5,18,2,18h16
	c0.5,0,1-0.2,1.4-0.6S20,16.5,20,16v-4c0-0.5-0.2-1-0.6-1.4C19,10.2,18.5,10,18,10z M13,14c0,0.6-0.4,1-1,1s-1-0.4-1-1s0.4-1,1-1
	S13,13.4,13,14z M17,14c0,0.6-0.4,1-1,1s-1-0.4-1-1s0.4-1,1-1S17,13.4,17,14z"/>
</svg>
