<?xml version="1.0" encoding="utf-8"?>
<!-- Generator: Adobe Illustrator 28.3.0, SVG Export Plug-In . SVG Version: 6.00 Build 0)  -->
<svg version="1.1" id="Layer_1" xmlns="http://www.w3.org/2000/svg" xmlns:xlink="http://www.w3.org/1999/xlink" x="0px" y="0px"
	 viewBox="0 0 13.2 12.7" style="enable-background:new 0 0 13.2 12.7;" xml:space="preserve">
<path d="M12.8,4.5l-4-0.6L7.1,0.3c0-0.1-0.1-0.2-0.2-0.2C6.6-0.1,6.3,0,6.2,0.3L4.4,3.9l-4,0.6c-0.1,0-0.2,0.1-0.3,0.1
	C0,4.7,0,4.8,0,5s0.1,0.3,0.2,0.4L3,8.1l-0.7,4c0,0.1,0,0.2,0,0.3s0.1,0.2,0.2,0.2c0.1,0.1,0.2,0.1,0.3,0.1s0.2,0,0.3-0.1l3.5-1.9
	l3.5,1.9c0.1,0.1,0.2,0.1,0.3,0.1c0.3,0,0.5-0.3,0.4-0.6l-0.7-4L13,5.3c0.1-0.1,0.1-0.2,0.1-0.3C13.3,4.7,13.1,4.5,12.8,4.5
	L12.8,4.5z"/>
</svg>
