<?xml version="1.0" encoding="utf-8"?>
<!-- Generator: Adobe Illustrator 28.3.0, SVG Export Plug-In . SVG Version: 6.00 Build 0)  -->
<svg version="1.1" id="Layer_1" xmlns="http://www.w3.org/2000/svg" xmlns:xlink="http://www.w3.org/1999/xlink" x="0px" y="0px"
	 viewBox="0 0 15.9 18" style="enable-background:new 0 0 15.9 18;" xml:space="preserve">
<style type="text/css">
	.st0{fill-rule:evenodd;clip-rule:evenodd;}
</style>
<path class="st0" d="M7.9,7.2c1,0,1.9-0.4,2.5-1.1s1.1-1.6,1.1-2.5s-0.4-1.9-1.1-2.5C9.8,0.4,8.9,0,7.9,0S6.1,0.4,5.4,1.1
	C4.7,1.7,4.3,2.6,4.3,3.6s0.4,1.9,1.1,2.5S7,7.2,7.9,7.2z M2.8,18c-1.8,0-3.4-1.5-2.7-3.2c0.4-1,1-1.9,1.8-2.7s1.7-1.4,2.7-1.8
	c1-0.4,2.1-0.6,3.2-0.6S10,9.9,11,10.3c1,0.4,1.9,1,2.7,1.8s1.4,1.7,1.8,2.7c0.7,1.7-0.8,3.2-2.7,3.2H2.8z"/>
</svg>
